<svg xmlns="http://www.w3.org/2000/svg" viewBox="0 0 178 36" width="178" height="36"><style>tspan { white-space:pre }.shp0 { fill: #c01818 } .shp1 { fill: #bd2e2b } .shp2 { fill: #75160d } </style><g ><path class="shp0" d="M91.48 23.27L86.69 20.44L86.35 21C85.28 22.71 83.78 23.57 81.94 23.57C78.77 23.57 76.42 21.17 76.42 18.04C76.42 14.87 78.82 12.51 81.94 12.51C83.82 12.51 85.19 13.33 86.35 15.09L86.69 15.64L91.48 12.81L91.05 12.21C88.74 8.87 85.79 7.29 81.9 7.29C74.58 7.29 70.64 12.86 70.64 18.09C70.64 23.31 74.58 28.89 81.9 28.89C85.62 28.89 89.13 27 91.05 23.91L91.48 23.27Z" /><path fill-rule="evenodd" class="shp0" d="M102.18 3.99L100.6 0.17L106.5 0.17L118.31 28.8L111.68 28.8L109.71 23.91L99.83 23.91L97.86 28.8L91.27 28.8L102.18 3.99ZM102.05 18.21L107.44 18.21L104.79 11.49L102.05 18.21Z" /><path class="shp0" d="M121.01 28.84L126.78 28.84L126.78 15.99L130.55 15.99L130.55 10.59L126.78 10.59L126.78 8.06C126.78 6.94 127.51 5.79 128.88 5.79C129.61 5.79 130.08 5.91 130.5 6.09L131.15 6.34L133.54 1.07L132.86 0.77C131.79 0.34 130.29 0.17 129.22 0.17C126.61 0.17 124.43 1.03 122.97 2.66C121.69 4.07 120.96 6.04 120.96 8.23L120.96 10.54L118.4 10.54L118.4 15.94L120.96 15.94L121.01 28.84Z" /><path class="shp0" d="M43.39 0.04L43.39 28.8L49.68 28.8L49.72 12.34L55.8 16.89L61.91 12.34L61.91 28.8L68.16 28.8L68.2 0.04L55.8 9.39L43.39 0.04Z" /><path fill-rule="evenodd" class="shp0" d="M154.21 18.73L154.21 20.14L138.46 20.14C139.02 22.24 141.12 23.83 143.51 23.83C145.14 23.83 146.64 23.19 147.83 21.94L152.54 24.51C150.1 27.3 146.98 28.8 143.64 28.84C136.37 28.84 132.43 23.31 132.43 18.09C132.43 12.86 136.37 7.33 143.64 7.33C148.05 7.33 154.21 10.84 154.21 18.73ZM147.75 15.47C146.89 13.46 145.22 12.34 143.08 12.34C140.99 12.34 139.36 13.46 138.59 15.43L147.75 15.47Z" /><path fill-rule="evenodd" class="shp0" d="M177.87 18.73L177.87 20.14L162.13 20.14C162.68 22.24 164.78 23.83 167.17 23.83C168.8 23.83 170.3 23.19 171.5 21.94L176.2 24.51C173.76 27.3 170.64 28.8 167.3 28.84C160.03 28.84 156.09 23.31 156.09 18.09C156.09 12.86 160.03 7.33 167.3 7.33C171.71 7.33 177.87 10.89 177.87 18.73ZM171.41 15.47C170.55 13.46 168.89 12.34 166.75 12.34C164.65 12.34 163.02 13.46 162.25 15.43L171.41 15.47Z" /><path class="shp1" d="M6.55 24.56L6.55 9.99L15.7 14.23L15.7 7.2L0.17 0L0.17 28.63L15.7 35.83L15.7 28.8L6.55 24.56Z" /><path class="shp2" d="M24.86 24.56L24.86 9.99L15.7 14.23L15.7 7.2L31.24 0L31.24 28.63L15.7 35.83L15.7 28.8L24.86 24.56Z" /></g></svg>