<svg xmlns="http://www.w3.org/2000/svg" viewBox="0 0 178 36" width="178" height="36"><style>tspan { white-space:pre }.shp0 { fill: #ffffff } </style><g ><path class="shp0" d="M91.5 23.49L86.73 20.65L86.4 21.22C85.32 22.93 83.85 23.78 82.01 23.78C78.85 23.78 76.49 21.41 76.49 18.24C76.49 15.06 78.85 12.69 82.01 12.69C83.9 12.69 85.27 13.5 86.4 15.3L86.78 15.87L91.55 13.03L91.12 12.41C88.86 9.09 85.84 7.48 81.96 7.48C74.65 7.48 70.73 13.03 70.73 18.28C70.73 23.54 74.65 29.08 81.96 29.08C85.69 29.08 89.19 27.19 91.12 24.11L91.5 23.49Z" /><path fill-rule="evenodd" class="shp0" d="M102.08 4.17L100.52 0.38L106.42 0.38L118.23 29.04L111.62 29.04L109.68 24.16L99.81 24.16L97.88 29.04L91.27 29.04L102.08 4.17ZM102.13 18.43L107.51 18.43L104.82 11.7L102.13 18.43Z" /><path class="shp0" d="M121.01 29.04L126.77 29.04L126.77 16.2L130.55 16.2L130.55 10.8L126.77 10.8L126.77 8.24C126.77 7.15 127.48 5.97 128.85 5.97C129.6 5.97 130.03 6.11 130.5 6.3L131.16 6.58L133.57 1.33L132.86 1.04C131.78 0.62 130.31 0.43 129.23 0.43C126.58 0.43 124.46 1.28 122.99 2.89C121.72 4.31 121.01 6.3 121.01 8.43L121.01 10.71L118.46 10.71L118.46 16.11L121.01 16.11L121.01 29.04Z" /><path class="shp0" d="M43.48 0.24L43.48 28.99L49.76 29.04L49.76 12.55L55.86 17.1L61.95 12.55L61.95 29.04L68.23 29.04L68.23 0.24L55.86 9.62L43.48 0.24Z" /><path fill-rule="evenodd" class="shp0" d="M154.11 18.99L154.11 20.42L138.39 20.42C138.95 22.45 141.08 24.06 143.44 24.06C145.04 24.06 146.51 23.4 147.74 22.17L152.46 24.73C150.05 27.47 146.93 28.99 143.58 29.04C136.31 29.04 132.39 23.49 132.39 18.28C132.39 13.07 136.31 7.53 143.58 7.53C147.97 7.53 154.16 11.08 154.11 18.99ZM147.69 15.63C146.79 13.64 145.14 12.51 143.01 12.51C140.94 12.51 139.28 13.69 138.53 15.63L147.69 15.63Z" /><path fill-rule="evenodd" class="shp0" d="M177.76 18.99L177.76 20.42L162.04 20.42C162.61 22.45 164.73 24.06 167.09 24.06C168.7 24.06 170.16 23.4 171.39 22.17L176.11 24.73C173.7 27.47 170.59 28.99 167.24 29.04C159.96 29.04 156.05 23.49 156.05 18.28C156.05 13.07 159.96 7.53 167.24 7.53C171.63 7.53 177.81 11.08 177.76 18.99ZM171.34 15.63C170.45 13.64 168.79 12.51 166.67 12.51C164.54 12.51 162.94 13.69 162.18 15.63L171.34 15.63Z" /><path fill-rule="evenodd" class="shp0" d="M31.35 0.24L31.35 28.89L15.82 36.09L0.28 28.89L0.28 0.24L15.82 7.44L31.35 0.24ZM24.98 10.18L15.82 14.45L6.66 10.18L6.66 24.77L15.82 29.04L24.98 24.77L24.98 10.18Z" /></g></svg>