<svg xmlns="http://www.w3.org/2000/svg" width="583" height="526" fill="none"  xmlns:v="https://vecta.io/nano"><path d="M177.549 1.974c-21.778 13.57-91.98 54.048-162.411 59.407C6.606 62.027 0 69.22 0 77.91v259.443c0 39.866 20.413 76.861 53.889 97.671 54.136 33.658 113.494 65.464 127.468 72.878 1.921 1.019 4.203 1.019 6.124 0 13.974-7.414 73.333-39.22 127.468-72.878 33.476-20.815 53.889-57.805 53.889-97.671V77.91c0-8.69-6.606-15.883-15.138-16.529-70.426-5.358-140.633-45.836-162.411-59.407-4.215-2.633-9.519-2.633-13.739 0z" fill="#fff"/><path d="M179.025 57.426c-16.955 10.565-71.612 42.08-126.447 46.25-6.646.507-11.789 6.104-11.789 12.872V318.54c0 31.037 15.895 59.844 41.956 76.046 42.145 26.203 88.362 50.968 99.245 56.739 1.497.792 3.274.792 4.771 0 10.877-5.771 57.099-30.536 99.245-56.739 26.061-16.202 41.956-45.009 41.956-76.046V116.547c0-6.768-5.144-12.365-11.79-12.872-54.834-4.17-109.491-35.684-126.447-46.249a10.1 10.1 0 0 0-10.7 0z" fill="url(#B)"/><path d="M242.609 222.823h-9.198c-1.623-33.501-23.177-60.111-49.456-60.111s-47.828 26.616-49.456 60.111h-9.198c-12.219 0-22.127 10.064-22.127 22.475v76.903c0 12.411 9.908 22.475 22.127 22.475h117.302c12.219 0 22.128-10.064 22.128-22.475v-76.903c.005-12.411-9.903-22.475-22.122-22.475zm-58.648-38.463c14.404 0 26.703 17.234 28.114 38.463h-56.228c1.41-21.229 13.71-38.463 28.114-38.463z" fill="#fff"/><path opacity=".55" d="M203.956 274.815c0-11.666-9.312-21.118-20.791-21.118-11.486 0-20.792 9.458-20.792 21.118 0 7.816 4.186 14.619 10.396 18.27v23.291c0 3.064 2.448 5.551 5.464 5.551h9.863c3.016 0 5.465-2.487 5.465-5.551v-23.291c6.204-3.651 10.395-10.454 10.395-18.27z" fill="#cceffc"/><path opacity=".01" d="M486.117 454.865c0 6.932-75.5 12.551-168.638 12.551s-168.638-5.619-168.638-12.551 75.501-12.552 168.638-12.552 168.638 5.619 168.638 12.552z" fill="#231f20"/><path d="M439.52 404.039c-2.792 3.53-6.451 6.595-10.069 9.125-19.74 13.81-43.331 23.258-66.723 29.344-20.892 5.437-42.788 5.196-64.156 3.086-14.605-1.443-29.136-5.983-43.223-10.195-14.491-4.334-28.784-9.496-42.292-16.359-10.642-5.406-20.175-12.118-21.797-24.892-.64-5.025.463-10.59 4.298-13.997 4.621-4.106 11.613-3.969 17.841-3.484 35.297 2.741 69.482 14.667 105.022 14.888 19.836.122 38.332-5.051 57.393-9.73 14.702-3.611 31.027-7.579 46.338-6.821 13.882.685 27.609 16.086 17.368 29.035z" fill="#0b2d4e"/><g fill="#9f6349"><path d="M272.309 374.129l-1.193-2.704a133.69 133.69 0 0 1-9.372-30.234c-.691-3.75-1.39-7.854-4.249-10.371-3.954-3.483-11.655-3.034-16.553-2.378-2.287.307-4.681 1.101-6.063 2.954-2.29 3.073-2.062 10.013-2.15 13.717-.548 22.512 17.195 41.121 31.644 56.312 2.781 2.925 5.801 5.884 9.654 7.065s8.746-.047 10.433-3.719c1.237-2.694.479-5.861-.499-8.658-1.685-4.815-4.221-9.227-7.106-13.411-1.948-2.826-3.229-5.588-4.546-8.573zm87.22.001l1.193-2.705a133.81 133.81 0 0 0 9.372-30.234c.691-3.75 1.39-7.854 4.249-10.371 3.954-3.483 11.655-3.034 16.553-2.377 2.287.306 4.681 1.1 6.063 2.953 2.29 3.073 2.062 10.013 2.15 13.717.549 22.512-17.195 41.122-31.644 56.313-2.781 2.925-5.801 5.883-9.654 7.064s-8.746-.046-10.433-3.719c-1.237-2.694-.479-5.86.499-8.658 1.685-4.815 4.221-9.227 7.106-13.411 1.948-2.826 3.229-5.588 4.546-8.572z"/><path d="M245.564 301.577l-3.997 10.485c-4.454 11.999-15.042 32.357-3.1 43.417 1.353 1.253 4.608 1.183 6.287.851 4.806-.953 7.222-5.443 9.577-9.263 7.062-11.467 12.185-24.029 18.993-35.653 4.914-8.389 7.403-18.397 9.76-27.745 1.561-6.188 3.569-15.044-1.632-20.167-2.117-2.084-5.196-3.143-8.141-2.8-1.775.207-3.46.887-5.061 1.679-1.372.677-2.712 1.446-3.874 2.442-2.888 2.474-4.282 6.048-6.003 9.336l-5.985 11.643c-2.482 5.167-4.715 10.444-6.824 15.775z"/></g><path d="M250.935 282.638c6.601-12.141 15.184-23.063 28.417-27.517 3.791-1.276 8.472-1.591 11.313 1.231 1.78 1.767 2.425 4.438 2.274 6.945-.217 3.636-1.857 7.088-2.696 10.61-2.23 9.38-5.612 18.529-10.071 27.076-.96 1.842-8.006 21.848-7.439 22.341-4.647-4.049-11.269-9.094-16.827-11.744-1.478-.704-14.949-7.659-15.337-6.78 3.124-7.062 6.384-14.832 10.366-22.162z" fill="#f85e60"/><path d="M387.799 301.577l3.998 10.485c4.453 11.999 15.042 32.357 3.1 43.417-1.353 1.253-4.609 1.183-6.288.851-4.805-.953-7.222-5.443-9.577-9.263-7.061-11.467-12.185-24.029-18.992-35.653-4.914-8.389-7.404-18.397-9.761-27.745-1.56-6.188-3.568-15.044 1.633-20.167 2.117-2.084 5.196-3.143 8.14-2.8 1.776.207 3.46.887 5.062 1.679 1.371.677 2.712 1.446 3.873 2.442 2.888 2.474 4.283 6.048 6.004 9.336l5.985 11.643c2.479 5.167 4.714 10.444 6.823 15.775z" fill="#9f6349"/><path d="M382.366 282.638c-6.601-12.141-15.184-23.063-28.417-27.517-3.791-1.276-8.472-1.591-11.313 1.231-1.78 1.767-2.424 4.438-2.274 6.945.217 3.636 1.858 7.088 2.696 10.61 2.231 9.38 5.613 18.529 10.071 27.076.96 1.842 8.006 21.848 7.439 22.341 4.648-4.049 11.269-9.094 16.827-11.744 1.478-.704 14.949-7.659 15.337-6.78-3.121-7.062-6.381-14.832-10.366-22.162z" fill="#f85e60"/><path d="M363.592 375.881l-.256-1.085c-3.121-13.551-3.579-27.54-3.188-41.392.383-13.582 3.4-26.945 3.79-40.535.451-15.671-2.269-37.932-21.823-39.744-8.086-.747-16.219-1.622-24.362-1.72v-.021l-.87.01-.869-.01v.018c-8.143.096-16.276.971-24.362 1.721-19.552 1.811-22.274 24.072-21.824 39.743.391 13.59 3.405 26.954 3.791 40.536.39 13.851-.068 27.841-3.188 41.391l-.256 1.085c-.614 2.546-1.605 5.131-1.141 7.709 1.003 5.569 14.379 8.274 18.889 9.473 8.407 2.237 17.088 3.236 25.744 3.875l2.329.168v.12l.887-.06.888.06v-.12l2.329-.168c8.655-.641 17.336-1.638 25.743-3.875 4.508-1.199 17.886-3.904 18.89-9.473.463-2.575-.528-5.16-1.141-7.706z" fill="#ffdbde"/><path d="M304.305 266.206c12.074 7.993 35.574 1.796 28.914-14.059-.807-1.924-1.791-3.787-2.329-5.793-.893-3.33-.805-6.761-.714-10.151l.355-11.868c-4.415-.828-7.994-1.244-12.682-1.072-3.879.142-7.753-.218-11.629-.016-.313.016-.649.044-.872.229s-.264.474-.29.742c-.52 5.341-.007 10.747-.416 16.099-.228 2.992-.637 6.416-2 9.193-2.096 4.272-5.214 8.237-2.21 12.875.986 1.521 2.313 2.79 3.873 3.821z" fill="#9f6349"/><path d="M330.712 245.638c-.696-3.097-.515-6.338-.43-9.476l.355-11.869c-4.415-.828-7.993-1.243-12.682-1.072-3.879.143-7.752-.218-11.631-.015-.313.015-.65.044-.872.228s-.262.475-.29.743c-.52 5.341-.008 10.747-.417 16.099a34.61 34.61 0 0 1-.652 4.575c.608.473 1.229.927 1.866 1.345 4.787 3.14 11.24 4.183 16.969 2.74 2.922-.731 5.431-1.816 7.784-3.298z" fill="#6d4d42"/><path d="M251.937 325.167l-1.102 2.619h131.304l-1.317-2.943-128.885.324z" fill="#b8d1ce"/><path d="M315.537 454.473c4.906 1.144 10.125 1.575 14.707 2.38 2.065.363 4.133.726 6.218.952 3.312.358 6.65.361 9.983.366l7.261.011c1.32.002 2.696-.011 3.866-.623 1.397-.732 2.243-2.18 3.017-3.559 1.534-2.73 3.387-5.323 4.637-8.209.818-1.887 1.677-3.737.572-5.707-.541-.965-1.361-1.741-2.2-2.463-1.074-.924-2.21-1.793-3.475-2.434-4.158-2.103-8.394-.865-12.635.231-4.489 1.16-8.971 2.452-13.593 2.966-4.975.555-9.982.189-14.961-.073" fill="#d5eff7"/><mask id="A" mask-type="alpha" maskUnits="userSpaceOnUse" x="108" y="439" width="405" height="31"><path opacity=".1" d="M512.282 454.864c0-8.284-90.405-14.998-201.93-14.998s-201.927 6.714-201.927 14.998 90.406 14.999 201.93 14.999 201.927-6.715 201.927-14.999z" fill="#231f20"/></mask><g mask="url(#A)"><path fill="#4b4b4b" d="M110.4 451.975h404.195v83.393H110.4z"/></g><path d="M332.789 459.793l-2.302-.028c-1.809-.019-4.066-.112-5.525-1.327-.228-.189-.44-.407-.564-.674-.305-.665.026-1.488.587-1.957s1.299-.66 2.014-.805c-.829.171-2.257-2.889-2.43-3.46-.471-1.549-.756-3.387-.686-5.011.065-1.539.38-3.026 1.325-4.257.484-.63 2.181-2.561 3.131-2.338-.823-.192-1.284-1.186-1.082-2.009s.916-1.44 1.703-1.746 1.648-.351 2.492-.382c4.432-.166 8.945-.091 13.279-1.178 3.84-.963 7.46-1.381 11.453-1.264 2.976.088 5.92.721 8.697 1.788a12.1 12.1 0 0 1 2.178 1.108c9.207 5.912 3.126 17.454-4.45 21.529-5.602 3.013-11.525 2.582-17.64 2.346l-12.18-.335z" fill="#5a6175"/><path d="M373.08 411.01H259.848l-8.112-84.556c-.145-1.515 1.024-2.829 2.52-2.829h124.419c1.495 0 2.665 1.314 2.52 2.829l-8.115 84.556z" fill="#b8d1ce"/><path d="M373.966 413.401h-115.01l-8.239-84.556c-.147-1.516 1.041-2.829 2.56-2.829h126.372c1.519 0 2.706 1.313 2.559 2.829l-8.242 84.556z" fill="#fff"/><path d="M373.897 413.401h-114.94v5.131h114.94v-5.131zm-49.459-43.694a7.99 7.99 0 0 1-7.975 7.999 7.99 7.99 0 0 1-7.975-7.999c0-4.418 3.571-7.999 7.975-7.999a7.99 7.99 0 0 1 7.975 7.999z" fill="#b8d1ce"/><g fill="#9f6349"><path d="M289.667 423.572c6.808 3.976 13.683 7.991 20.636 11.637.137.073.279.141.419.208 2.968 1.422 6.044 2.606 8.997 4.07 1.878.931 3.729 1.931 5.488 3.073a28.18 28.18 0 0 1 2.401 1.728c.311.252.836.566 1.035.916.254.449.138 1.171-.038 1.623-.187.48-.5.9-.841 1.282-1.367 1.531-3.206 2.543-5.057 3.431-1.141.547-2.3 1.059-3.477 1.523-1.084.429-2.282.997-3.429 1.22-.543.107-1.203-.08-1.754-.156l-1.832-.269c-1.221-.193-2.438-.411-3.651-.649-5.54-1.085-10.987-2.596-16.393-4.22l-16.066-4.893c-25.397-7.34-51.816-15.562-73.932-30.47-5.095-3.447-10.224-8.531-12.397-14.389-5.701-15.399 10.611-27.325 24.533-21.524 23.246 9.689 42.405 27.057 64.327 39.471l11.031 6.388z"/><path d="M333.743 429.121l-11.062 6.088c-3.793 1.988-26.192 9.748-20.067 17.854 1.204 1.591 3.478 1.78 5.468 1.798 11.445.109 22.571-2.795 33.535-6.112"/></g><path d="M310.289 435.21l-6.192-3.354c-3.576.86-7.173 1.633-10.847 1.911-7.799.594-15.632-1.051-23.436-.545-1.972.127-3.933.392-5.866.791-2.292.473-4.929 1.521-5.413 3.818a3.45 3.45 0 0 0-.047.994l17.601 5.274c7.957 2.299 15.96 5.03 24.077 7.166.026-.011.055-.021.081-.032 4.355-1.642 9.406-3.036 14.014-5.071 3.069-1.355 5.944-2.995 8.283-5.185-4.979-2.77-10.534-4.864-12.255-5.767z" fill="#6d4d42"/><path d="M299.57 452.77c-5.118-1.547-20.364-6.688-25.425-8.149-25.398-7.34-50.275-16.079-72.391-30.987-5.095-3.447-10.223-8.531-12.397-14.389-5.7-15.399 10.612-27.325 24.533-21.524 23.247 9.689 41.282 23.268 63.204 35.682 3.659 2.071 10.157 6.276 13.857 8.438 3.175 1.855 13.973 7.267 17.179 9.097" fill="#0b2d4e"/><path d="M316.463 454.473c-4.906 1.144-10.125 1.575-14.708 2.38-2.065.363-4.132.726-6.218.952-3.312.358-6.65.361-9.983.366l-7.26.011c-1.32.002-2.697-.011-3.866-.623-1.397-.732-2.244-2.18-3.017-3.559-1.535-2.73-3.387-5.323-4.637-8.209-.818-1.887-1.677-3.737-.572-5.707.541-.965 1.361-1.741 2.199-2.463 1.074-.924 2.21-1.793 3.476-2.434 4.158-2.103 8.394-.865 12.635.231 4.489 1.16 8.971 2.452 13.592 2.966 4.976.555 9.983.189 14.962-.073" fill="#d5eff7"/><path d="M313.067 438.314c3.977-.208 10.076-1.235 13.629 1.056 1.452.937 3.703 3.2 3.881 4.989.223 2.252-2.287 4.604-3.884 5.782-2.947 2.175-6.494 3.46-10.228 4.329" fill="#9f6349"/><path d="M299.214 459.793l2.303-.028c1.808-.019 4.065-.112 5.524-1.327.228-.189.44-.407.564-.674.305-.665-.026-1.488-.587-1.957s-1.299-.66-2.013-.805c.828.171 2.256-2.889 2.429-3.46.471-1.549.756-3.387.686-5.011-.065-1.539-.38-3.026-1.325-4.257-.484-.63-2.181-2.561-3.131-2.338.823-.192 1.284-1.186 1.082-2.009s-.916-1.44-1.703-1.746-1.648-.351-2.492-.382c-4.432-.166-8.945-.091-13.279-1.178-3.84-.963-7.46-1.381-11.453-1.264-2.975.088-5.92.721-8.697 1.788a12.13 12.13 0 0 0-2.178 1.108c-9.207 5.912-3.126 17.454 4.45 21.529 5.602 3.013 11.525 2.582 17.64 2.346l12.18-.335z" fill="#5a6175"/><path d="M338.293 228.42c-3.659 4.43-8.787 7.35-13.867 10.026-1.247.657-2.512 1.311-3.884 1.633-4.205.986-8.451-1.301-11.957-3.829a69.41 69.41 0 0 1-13.028-12.234c-3.817-4.649-5.949-9.728-8.438-15.194-2.505-5.505-3.054-11.038-2.526-17.057.543-6.182-2.903-11.703-1.345-17.95a17.85 17.85 0 0 1 6.688-9.982c1.801-1.324 3.895-2.31 6.115-2.551 4.965-.543 9.186 2.844 14.094 3.075 4.95.234 9.717-1.575 14.473-2.66 4.158-.95 8.71-1.472 12.834-.055 4.59 1.576 6.8 5.098 9.341 9.178 2.169 3.486 5.434 6.099 8.045 9.193 3.498 4.145 4.603 9.419 3.491 14.82-.94 4.562-2.709 9.25-5.025 13.296-2.016 3.525-4.21 7.233-6.583 10.574-1.806 2.541-3.788 4.415-5.9 6.631-.916.955-1.677 2.053-2.528 3.086z" fill="#03053e"/><path d="M342.788 207.22c-.08-5.071-.825-9.873-2.166-13.854-5.783-17.179-27.26-21.223-40.042-8.723-14.258 13.94-8.42 46.87 6.854 58.306 4.083 3.057 9.603 4.09 14.514 2.717 14.855-4.155 21.091-22.606 20.84-38.446z" fill="#9f6349"/><path d="M346.297 193.308c-6.506-17.171-30.741-21.186-45.187-8.671-3.38 2.928-6.979 7.532-8.547 11.747-1.679 4.516-1.24 9.507-.776 14.303.359-3.96 2.209-7.519 4.802-10.475 1.278-1.456 2.715-2.772 4.215-3.992.546-.443 4.64-4.176 4.249-4.689 1.457 1.905 2.903 3.797 5.149 4.754 2.808 1.194 5.727 1.885 8.695 2.533 5.245 1.145 9.351 2.624 13.157 6.562 3.52 3.638 6.066 8.162 7.758 12.919.536 1.503 1.447 3.818 3.408 3.143.463-.161 4.497-3.176 4.539-3.387.709-3.636 1.024-7.332.965-10.892-.083-5.072-.919-9.876-2.427-13.855z" fill="#6d4d42"/><path d="M334.699 203.789c1.306 2.141 2.106 4.55 2.895 6.935 1.247 3.768 2.233 7.82 3.832 11.438 5.452-3.299 9.044-11.083 11.525-16.709 2.202-4.994 2.821-8.962.955-14.197-1.206-3.385-3.516-6.393-6.262-8.972-7.92-7.447-19.8-11.238-31.26-10.483-4.024.265-7.308 1.687-11.086 2.787-3.469 1.01-6.124 1.669-8.673 4.534-2.269 2.549-3.724 5.721-4.862 8.939-1.861 5.248-2.914 10.657-2.505 16.234.261 3.566.287 7.093 3.806 9.035l-.183-6.367c-.029-1.015-.06-2.04.114-3.042.152-.893.46-1.752.768-2.605.939-2.601 1.801-4.685 3.581-6.829 2.329-2.803 5.401-5.341 6.053-8.931 5.514 5.373 12.016 8.739 19.259 11.241 4.593 1.586 9.261 2.499 11.988 6.901.018.034.036.062.055.091z" fill="#0b2d4e"/><path d="M342.891 207.674c6.559-3.683 8.678 5.456 7.589 10.024-.45 1.886-1.172 3.729-2.321 5.289-1.547 2.102-6.001 5.606-8.609 3.35-1.182-1.022-1.322-2.782-1.374-4.347-.137-4.199.269-11.819 4.715-14.316zm-47.399 0c-6.56-3.683-8.679 5.456-7.589 10.024.45 1.886 1.172 3.729 2.321 5.289 1.547 2.102 6 5.606 8.608 3.35 1.183-1.022 1.323-2.782 1.374-4.347.138-4.199-.269-11.819-4.714-14.316z" fill="#9f6349"/><path d="M332.995 452.77c5.118-1.547 20.364-6.688 25.425-8.15 25.397-7.339 50.275-16.078 72.391-30.986 5.095-3.447 10.223-8.531 12.397-14.389 5.7-15.399-10.612-27.325-24.533-21.524-23.247 9.689-41.282 23.268-63.204 35.682-3.659 2.071-10.157 6.275-13.857 8.437-3.175 1.856-13.973 7.268-17.179 9.097" fill="#0b2d4e"/><defs><linearGradient id="B" x1="184.375" y1="55.892" x2="184.375" y2="451.919" gradientUnits="userSpaceOnUse"><stop stop-color="#cceffc"/><stop offset="1" stop-color="#cceffc" stop-opacity="0"/></linearGradient></defs></svg>