<svg xmlns="http://www.w3.org/2000/svg" width="777" height="702" fill="none"  xmlns:v="https://vecta.io/nano"><path fill-rule="evenodd" d="M425.495.573c75.009 7.31 116.854 87.903 174.61 136.323 58.496 49.042 141.361 78.021 166.878 149.97 25.717 72.512-6.614 151.77-34.42 223.508-25.899 66.815-68.429 123.157-119.451 173.468-53.723 52.974-109.436 109.103-183.192 124.959-75.719 16.278-153-7.68-224.561-37.3-73.276-30.329-156.083-62.961-190.413-134.459-33.793-70.381.895-152.318 15.933-228.932 12.297-62.651 29.201-122.782 63.653-176.533 34.324-53.551 81.272-94.545 133.428-130.948C289.737 57.51 350.518-6.734 425.495.573z" fill="url(#A)"/><defs><linearGradient id="A" x1="412.5" y1="219.5" x2="418.699" y2="578.191" gradientUnits="userSpaceOnUse"><stop stop-color="#f5f6fa"/><stop offset=".902" stop-color="#f2fbfe" stop-opacity="0"/></linearGradient></defs></svg>