<svg width="55" height="61" viewBox="0 0 55 61" fill="none" xmlns="http://www.w3.org/2000/svg">
<path d="M41.3871 25.8482L44.0526 28.5137L45.2926 27.2736L42.8709 24.8466L46.1723 23.1986L45.388 21.6247L42.2668 23.188V19.0864H40.5075V23.188L37.3863 21.6247L36.602 23.1986L39.9034 24.8466L37.4816 27.2736L38.7216 28.5137L41.3871 25.8482Z" fill="#1389A2"/>
<path d="M17.6096 21.6252L14.4884 23.1885V19.0869H12.7291V23.1885L9.60787 21.6252L8.82359 23.1991L12.125 24.8471L9.70326 27.2741L10.9433 28.5141L13.6087 25.8486L16.2742 28.5141L17.5142 27.2741L15.0925 24.8471L18.3939 23.1991L17.6096 21.6252Z" fill="#1389A2"/>
<path d="M31.4993 21.6247L28.3781 23.188V19.0864H26.6188V23.188L23.4976 21.6247L22.7133 23.1986L26.0147 24.8466L23.593 27.2736L24.833 28.5137L27.4984 25.8482L30.1639 28.5137L31.4039 27.2736L28.9822 24.8466L32.2836 23.1986L31.4993 21.6247Z" fill="#1389A2"/>
<path d="M51.8046 11H3.19539C1.43607 11 0 12.4308 0 14.1901V36.1816C0 37.9409 1.43077 39.377 3.19539 39.377H10.3705V37.623H3.19539C2.40052 37.623 1.75933 36.9765 1.75933 36.1869V14.1954C1.75933 13.4005 2.40582 12.7593 3.19539 12.7593H51.8046C52.5995 12.7593 53.2407 13.4058 53.2407 14.1954V36.1869C53.2407 36.9818 52.5942 37.623 51.8046 37.623H44.3964V39.377H51.8046C53.5639 39.377 55 37.9462 55 36.1816V14.1901C54.9947 12.4308 53.5639 11 51.8046 11Z" fill="#1389A2"/>
<path d="M22.1616 45.4087L20.9269 46.6593L24.896 50.5701C25.0762 50.745 25.3093 50.8351 25.569 50.8192C25.818 50.8033 26.0459 50.6814 26.1996 50.4906L34.1589 40.4593L32.7811 39.3677L25.4259 48.6306L22.1616 45.4087Z" fill="#1389A2"/>
<path d="M27.6782 59.7905C27.6032 59.8184 27.5355 59.8432 27.4755 59.8648C27.4143 59.8409 27.3449 59.8134 27.2678 59.7823C26.9222 59.6429 26.4243 59.4321 25.8249 59.1499C24.6236 58.5843 23.0286 57.7386 21.4403 56.6158C18.2163 54.3368 15.2654 51.0973 15.2654 46.9273V46.8841V46.841V46.7979V46.7548V46.7117V46.6687V46.6257V46.5827V46.5397V46.4968V46.4538V46.4109V46.3681V46.3252V46.2824V46.2396V46.1969V46.1542V46.1114V46.0688V46.0261V45.9835V45.9409V45.8984V45.8558V45.8133V45.7708V45.7284V45.686V45.6436V45.6013V45.5589V45.5166V45.4744V45.4322V45.39V45.3478V45.3057V45.2636V45.2215V45.1795V45.1375V45.0955V45.0536V45.0117V44.9698V44.928V44.8862V44.8444V44.8027V44.761V44.7193V44.6777V44.6361V44.5946V44.553V44.5116V44.4701V44.4287V44.3874V44.346V44.3048V44.2635V44.2223V44.1811V44.14V44.0989V44.0578V44.0168V43.9758V43.9349V43.894V43.8531V43.8123V43.7716V43.7308V43.6901V43.6495V43.6089V43.5683V43.5278V43.4873V43.4469V43.4065V43.3661V43.3258V43.2856V43.2453V43.2052V43.165V43.1249V43.0849V43.0449V43.005V42.9651V42.9252V42.8854V42.8456V42.8059V42.7662V42.7266V42.687V42.6475V42.608V42.5686V42.5292V42.4899V42.4506V42.4113V42.3721V42.333V42.2939V42.2549V42.2159V42.1769V42.1381V42.0992V42.0604V42.0217V41.983V41.9444V41.9058V41.8673V41.8288V41.7904V41.752V41.7137V41.6754V41.6372V41.5991V41.561V41.5229V41.4849V41.447V41.4091V41.3713V41.3335V41.2958V41.2582V41.2206V41.183V41.1456V41.1081V41.0708V41.0334V40.9962V40.959V40.9219V40.8848V40.8478V40.8108V40.7739V40.737V40.7003V40.6635V40.6269V40.5903V40.5537V40.5173V40.4808V40.4445V40.4082V40.3719V40.3358V40.2997V40.2636V40.2276V40.1917V40.1559V40.1201V40.0843V40.0487V40.0131V39.9775V39.9421V39.9066V39.8713V39.836V39.8008V39.7657V39.7306V39.6956V39.6606V39.6258V39.5909V39.5562V39.5215V39.4869V39.4524V39.4179V39.3835V39.3492V39.3149V39.2807V39.2466V39.2125V39.1785V39.1446V39.1108V39.077V39.0433V39.0097V38.9761V38.9426V38.9092V38.8759V38.8426V38.8094V38.7763V38.7432V38.7102V38.6773V38.6445V38.6117V38.579V38.5464V38.5139V38.4814V38.449V38.4167V38.3845V38.3523V38.3203V38.2883V38.2563V38.2245V38.1927V38.161V38.1294V38.0978V38.0664V38.035V38.0037V37.9725V37.9413V37.9102V37.8793V37.8483V37.8175V37.7868V37.7561V37.7255V37.695V37.6646V37.6342V37.604V37.5738V37.5437V37.5137V37.4837V37.4539V37.4241V37.3944V37.3648V37.3353V37.3059V37.2765V37.2473V37.2181V37.189V37.16V37.1311V37.1022V37.0735V37.0448V37.0163V36.9878V36.9594V36.931V36.9028V36.8747V36.8466V36.8186V36.7908V36.763V36.7353V36.7077V36.6801V36.6527V36.6254V36.5981V36.571V36.5439V36.5169V36.49V36.4632V36.4365V36.4099V36.3834V36.3569V36.3306V36.3043V36.2782V36.2521V36.2262V36.2003V36.1745V36.1488V36.1232V36.0977V36.0723V36.047V36.0218V35.9967V35.9717V35.9468V35.9219V35.8972V35.8726V35.848V35.8236V35.7992V35.775V35.7509V35.7268V35.7028V35.679V35.6552V35.6316V35.608V35.5846V35.5612V35.538V35.5148V35.4918V35.4688V35.4459V35.4232V35.4005V35.378V35.3556V35.3332V35.311V35.2888V35.2668V35.2449V35.223V35.2013V35.1797V35.1582V35.1367V35.1154V35.0942V35.0731V35.0521V35.0312V35.0105V34.9898V34.9692V34.9487V34.9284V34.9081V34.888V34.868V34.848V34.8282V34.8085V34.7889V34.7694V34.75V34.7307V34.7116V34.6925V34.6736V34.6547V34.636V34.6174V34.5989V34.5805V34.5622V34.544V34.5259V34.508V34.4902V34.4724V34.4548V34.4373V34.4199V34.4027V34.3855V34.3685V34.3515V34.3347V34.318V34.3014V34.2849V34.2686V34.2523V34.2362V34.2202V34.2043V34.1885V34.1729V34.1573V34.1419V34.1378C15.3658 34.1288 15.4734 34.1187 15.5877 34.1076C16.3771 34.0305 17.4902 33.9006 18.7921 33.6886C21.2745 33.2844 24.4846 32.5755 27.4546 31.344C30.425 32.5755 33.6381 33.2845 36.1234 33.6887C37.4269 33.9006 38.5415 34.0306 39.332 34.1076C39.447 34.1188 39.5551 34.1289 39.6561 34.138V34.1419V34.1573V34.1729V34.1885V34.2043V34.2202V34.2362V34.2523V34.2686V34.2849V34.3014V34.318V34.3347V34.3515V34.3685V34.3855V34.4027V34.4199V34.4373V34.4548V34.4724V34.4902V34.508V34.5259V34.544V34.5622V34.5805V34.5989V34.6174V34.636V34.6547V34.6736V34.6925V34.7116V34.7307V34.75V34.7694V34.7889V34.8085V34.8282V34.848V34.868V34.888V34.9081V34.9284V34.9487V34.9692V34.9898V35.0105V35.0312V35.0521V35.0731V35.0942V35.1154V35.1367V35.1582V35.1797V35.2013V35.223V35.2449V35.2668V35.2888V35.311V35.3332V35.3556V35.378V35.4005V35.4232V35.4459V35.4688V35.4918V35.5148V35.538V35.5612V35.5846V35.608V35.6316V35.6552V35.679V35.7028V35.7268V35.7509V35.775V35.7992V35.8236V35.848V35.8726V35.8972V35.9219V35.9468V35.9717V35.9967V36.0218V36.047V36.0723V36.0977V36.1232V36.1488V36.1745V36.2003V36.2262V36.2521V36.2782V36.3043V36.3306V36.3569V36.3834V36.4099V36.4365V36.4632V36.49V36.5169V36.5439V36.571V36.5981V36.6254V36.6527V36.6801V36.7077V36.7353V36.763V36.7908V36.8186V36.8466V36.8747V36.9028V36.931V36.9594V36.9878V37.0163V37.0448V37.0735V37.1022V37.1311V37.16V37.189V37.2181V37.2473V37.2765V37.3059V37.3353V37.3648V37.3944V37.4241V37.4539V37.4837V37.5137V37.5437V37.5738V37.604V37.6342V37.6646V37.695V37.7255V37.7561V37.7868V37.8175V37.8483V37.8793V37.9102V37.9413V37.9725V38.0037V38.035V38.0664V38.0978V38.1294V38.161V38.1927V38.2245V38.2563V38.2883V38.3203V38.3523V38.3845V38.4167V38.449V38.4814V38.5139V38.5464V38.579V38.6117V38.6445V38.6773V38.7102V38.7432V38.7763V38.8094V38.8426V38.8759V38.9092V38.9426V38.9761V39.0097V39.0433V39.077V39.1108V39.1446V39.1785V39.2125V39.2466V39.2807V39.3149V39.3492V39.3835V39.4179V39.4524V39.4869V39.5215V39.5562V39.5909V39.6258V39.6606V39.6956V39.7306V39.7657V39.8008V39.836V39.8713V39.9066V39.9421V39.9775V40.0131V40.0487V40.0843V40.1201V40.1559V40.1917V40.2276V40.2636V40.2997V40.3358V40.3719V40.4082V40.4445V40.4808V40.5173V40.5537V40.5903V40.6269V40.6635V40.7003V40.737V40.7739V40.8108V40.8478V40.8848V40.9219V40.959V40.9962V41.0334V41.0708V41.1081V41.1456V41.183V41.2206V41.2582V41.2958V41.3335V41.3713V41.4091V41.447V41.4849V41.5229V41.561V41.5991V41.6372V41.6754V41.7137V41.752V41.7904V41.8288V41.8673V41.9058V41.9444V41.983V42.0217V42.0604V42.0992V42.1381V42.1769V42.2159V42.2549V42.2939V42.333V42.3721V42.4113V42.4506V42.4899V42.5292V42.5686V42.608V42.6475V42.687V42.7266V42.7662V42.8059V42.8456V42.8854V42.9252V42.9651V43.005V43.0449V43.0849V43.1249V43.165V43.2052V43.2453V43.2856V43.3258V43.3661V43.4065V43.4469V43.4873V43.5278V43.5683V43.6089V43.6495V43.6901V43.7308V43.7716V43.8123V43.8531V43.894V43.9349V43.9758V44.0168V44.0578V44.0989V44.14V44.1811V44.2223V44.2635V44.3048V44.346V44.3874V44.4287V44.4701V44.5116V44.553V44.5946V44.6361V44.6777V44.7193V44.761V44.8027V44.8444V44.8862V44.928V44.9698V45.0117V45.0536V45.0955V45.1375V45.1795V45.2215V45.2636V45.3057V45.3478V45.39V45.4322V45.4744V45.5166V45.5589V45.6013V45.6436V45.686V45.7284V45.7708V45.8133V45.8558V45.8984V45.9409V45.9835V46.0261V46.0688V46.1114V46.1542V46.1969V46.2396V46.2824V46.3252V46.3681V46.4109V46.4538V46.4968V46.5397V46.5827V46.6257V46.6687V46.7117V46.7548V46.7979V46.841V46.8841V46.9273C39.6561 51.32 36.6939 54.5586 33.4902 56.771C31.9063 57.8648 30.3155 58.6695 29.117 59.2011C28.5192 59.4663 28.0227 59.662 27.6782 59.7905Z" stroke="#1389A2" stroke-width="2"/>
</svg>
